<svg width="180" height="361" viewBox="0 0 180 361" fill="none" xmlns="http://www.w3.org/2000/svg">
<path d="M-102.322 256.835C-82.0056 268.108 -55.7367 243.527 -49.7669 229.172C-39.4248 204.302 -57.728 175.305 -21.3786 154.887C3.0626 140.965 19.6748 92.2045 -69.6944 71.8" stroke="#D3D9D7" stroke-width="5"/>
<path d="M-62.0924 281.009C-37.5434 295.238 -7.16988 266.679 -0.573711 249.673C10.8536 220.212 -11.9213 184.8 30.583 161.587C59.1559 145.746 77.2033 87.8552 -29.7656 60.2642" stroke="#D3D9D7" stroke-width="5"/>
<path d="M-22.3943 327.447C11.0559 348.372 47.2016 313.203 53.8247 291.277C65.2987 253.291 31.7441 204.501 84.2277 177.443C119.482 158.941 136.313 83.9212 -5.53504 38.2566" stroke="#D3D9D7" stroke-width="5"/>
</svg>
