<svg width="382" height="389" viewBox="0 0 382 389" fill="none" xmlns="http://www.w3.org/2000/svg">
<path fill-rule="evenodd" clip-rule="evenodd" d="M226.982 0C227.824 13.3017 230.907 25.4771 235.007 33.3569C240.445 43.8082 248.388 52.2784 257.192 60.3188C260.411 63.2584 263.792 66.1777 267.201 69.1214C272.969 74.1022 278.817 79.1524 284.097 84.4871C292.614 93.0917 300.065 102.802 304.343 115.166C308.627 127.546 309.657 142.376 305.683 161.116C300.751 185.119 310.124 216.244 337.064 229.626C348.525 235.319 363.389 237.911 382 235.256V240.31C362.873 242.929 347.233 240.26 334.84 234.104C305.391 219.476 295.511 185.765 300.787 160.103L300.789 160.095L300.79 160.088C304.612 142.07 303.555 128.179 299.618 116.801C295.674 105.403 288.768 96.3139 280.544 88.0045C275.366 82.7733 269.823 77.9912 264.188 73.1294C260.746 70.1598 257.269 67.1605 253.821 64.0109C244.865 55.8319 236.413 46.8915 230.571 35.6647C226.075 27.0233 222.824 14.0348 221.973 0H226.982ZM139.291 0C138.123 4.13418 137.244 8.41012 136.628 12.7582C133.228 36.772 138.001 62.1994 145.699 76.1438C152.416 88.3121 162.225 98.1673 173.069 107.501C177.05 110.928 181.216 114.319 185.411 117.733L185.411 117.733C192.488 123.493 199.645 129.318 206.126 135.489C216.563 145.428 225.681 156.631 230.918 170.896C236.164 185.187 237.433 202.325 232.555 224.005C226.484 251.853 237.98 288.126 271.395 303.77C295.57 315.089 331.775 315.869 382 294.139V299.573C331.921 320.811 294.849 320.272 269.274 308.298C233.367 291.487 221.193 252.631 227.672 222.931L227.674 222.923L227.676 222.915C232.382 202.001 231.085 185.859 226.224 172.619C221.353 159.351 212.822 148.77 202.678 139.11C196.302 133.038 189.456 127.471 182.514 121.826L182.514 121.825C178.286 118.387 174.022 114.919 169.807 111.291C158.816 101.83 148.47 91.5113 141.321 78.5602C133.011 63.5054 128.153 36.9473 131.678 12.0571C132.253 7.99372 133.056 3.95389 134.111 0H139.291ZM13.3812 0C9.98203 7.72313 7.71819 15.9867 6.41592 24.4269C1.92655 53.523 8.97277 84.2384 20.0576 101.065C29.738 115.759 43.7747 127.591 59.2256 138.746C64.9281 142.863 70.8658 146.913 76.8312 150.983L76.8313 150.983L76.8318 150.984C86.8599 157.825 96.966 164.72 106.164 172.071C120.941 183.879 133.878 197.221 141.414 214.323C148.976 231.482 150.988 252.163 144.391 278.433C136.206 312.113 152.736 356.105 200.643 374.753C239.221 389.77 298.52 388.468 382 351.339V356.804C298.843 393.383 238.773 394.961 198.829 379.413C148.566 359.847 130.757 313.342 139.535 277.244L139.537 277.235L139.539 277.226C145.914 251.847 143.882 232.323 136.839 216.34C129.77 200.298 117.54 187.561 103.043 175.977C93.9552 168.714 84.1715 162.043 74.2839 155.301L74.2833 155.301L74.2812 155.299C68.2813 151.208 62.2431 147.091 56.2989 142.8C40.7199 131.553 26.0764 119.29 15.8822 103.815C4.02245 85.8128 -3.17668 53.8085 1.47439 23.6644C2.72331 15.57 4.83438 7.57575 7.95408 0H13.3812Z" fill="#D3D9D7"/>
</svg>
